# xmcd
#
# Track frame offsets:
#	150
#	13406
#	26789
#	36521
#	46766
#	57840
#	70700
#	84170
#	95792
#	108282
#	120486
#	133926
#	146150
#	157906
#	169070
#	180258
#	188183
#	199780
#	211339
#	223040
#	235311
#	246640
#
# Disc length: 3483 seconds
#
# Revision: 1
# Processed by: cddbd v1.5.2PL0 Copyright (c) Steve Scherf et al.
# Submitted via: audiograbber 1.83.01
#
DISCID=410d9916
DTITLE=Diverse - Bob Dylans Country Selection (Disk 1)
DYEAR=2010
DGENRE=Country
TTITLE0=Blue Yodel No. 8 - Jimmie Rodgers
TTITLE1=Columbus Stockade Blues - Tom Darby and Jimmie Tarlton
TTITLE2=Southern Cannonball - Hank Snow
TTITLE3=Will The Circle Be Unbroken? - Roy Acuff
TTITLE4=Lonesome Whistle - Hank Williams
TTITLE5=Blues Stay Away From Me - The Delmore Brothers
TTITLE6=I Forgot More Than You´ll Ever Know - The Davis Sisters
TTITLE7=Weary Blues From Waitin´ - Johnny Cash
TTITLE8=I´m So Lonesome I Could Cry - Hank Williams
TTITLE9=Folsom Prison Blues - Johnny Williams
TTITLE10=Be Careful Of Stones That You Throw - Hank Williams
TTITLE11=Cool Water - Sons Of The Pioneers
TTITLE12=You Win Again - Hank Williams
TTITLE13=I Forgot To Remember To Forget - Elvis Presley
TTITLE14=A Fool Such As I - Hank Snow
TTITLE15=Five Feet High And Rising - Johnny Cash
TTITLE16=Blue Yodel No. 1 - Bob Downen
TTITLE17=Blue Yodel No. 5 - Jimmie Rodgers
TTITLE18=I Still Miss Someone - Johnny Cash
TTITLE19=I Walk The Line - Johnny Cash
TTITLE20=Oh Lonesome Me - Don Gibson
TTITLE21=Little Moses - The Carter Familie
EXTD=
EXTT0=
EXTT1=
EXTT2=
EXTT3=
EXTT4=
EXTT5=
EXTT6=
EXTT7=
EXTT8=
EXTT9=
EXTT10=
EXTT11=
EXTT12=
EXTT13=
EXTT14=
EXTT15=
EXTT16=
EXTT17=
EXTT18=
EXTT19=
EXTT20=
EXTT21=
PLAYORDER=
